<?xml version="1.0" encoding="UTF-8"?>
<svg id="Layer_1" data-name="Layer 1" xmlns="http://www.w3.org/2000/svg" viewBox="0 0 266.77 189.17">
  <defs>
    <style>
      .cls-1, .cls-2, .cls-3 {
        stroke: #000;
        stroke-miterlimit: 10;
      }

      .cls-1, .cls-3 {
        stroke-width: 2px;
      }

      .cls-3 {
        fill: none;
      }
    </style>
  </defs>
  <g>
    <path class="cls-2" d="M88.53,181.38l-53.68-82.58c-4.29-6.59-3.02-15.05,2.82-18.85L157.06,2.34c5.84-3.8,14.09-1.52,18.37,5.07l53.68,82.58c4.29,6.59,3.02,15.05-2.82,18.85l-119.39,77.61c-5.84,3.8-14.09,1.52-18.37-5.07ZM173.71,8.53c-3.59-5.52-10.49-7.42-15.38-4.24L38.94,81.89c-4.89,3.18-5.95,10.26-2.36,15.78l53.68,82.58c3.59,5.52,10.49,7.42,15.38,4.24l119.39-77.61c4.89-3.18,5.95-10.26,2.36-15.78L173.71,8.53Z"/>
    <path class="cls-1" d="M88.55,181.26l-53.68-82.58c-4.29-6.59-3.02-15.05,2.82-18.85L115.26,29.41c5.84-3.8,14.09-1.52,18.37,5.07l53.68,82.58c4.29,6.59,3.02,15.05-2.82,18.85l-77.57,50.42c-5.84,3.8-14.09,1.52-18.37-5.07ZM131.9,35.6c-3.59-5.52-10.49-7.42-15.38-4.24l-77.57,50.42c-4.89,3.18-5.95,10.26-2.36,15.78l53.68,82.58c3.59,5.52,10.49,7.42,15.38,4.24l77.57-50.42c4.89-3.18,5.95-10.26,2.36-15.78l-53.68-82.58Z"/>
  </g>
  <rect class="cls-3" x="132.52" y="45.53" width="97.34" height="33.86" rx="8.09" ry="8.09" transform="translate(134.81 -123.5) rotate(56.97)"/>
  <line class="cls-3" x1="138.82" y1="80.76" x2="83.71" y2="116.32"/>
  <line class="cls-3" x1="147.57" y1="95.43" x2="92.46" y2="130.98"/>
  <polygon class="cls-1" points="166.37 15.54 196.4 109.37 189.11 105.71 143.67 34.49 143.67 29.82 166.37 15.54"/>
  <polygon class="cls-3" points="223.14 56.5 244.48 92.59 263.57 67.32 223.14 56.5"/>
  <line class="cls-3" x1="223.14" y1="56.5" x2="253.37" y2="80.83"/>
  <path class="cls-3" d="M265.34,92.59S288.07,239.76.38,121.54"/>
</svg>