<?xml version="1.0" encoding="UTF-8"?>
<svg id="Layer_1" data-name="Layer 1" xmlns="http://www.w3.org/2000/svg" viewBox="0 0 736.89 210.67">
  <defs>
    <style>
      .cls-1 {
        fill: #b1bfe0;
      }

      .cls-1, .cls-2, .cls-3, .cls-4, .cls-5, .cls-6 {
        stroke: #000;
        stroke-miterlimit: 10;
      }

      .cls-2 {
        fill: #f7f7e4;
      }

      .cls-2, .cls-3, .cls-5 {
        stroke-width: 2px;
      }

      .cls-7, .cls-5 {
        fill: none;
      }

      .cls-6 {
        fill: #faf53a;
      }
    </style>
  </defs>
  <rect class="cls-1" x="66.58" y="55.68" width="139.46" height="104.75" rx="11.03" ry="11.03" transform="translate(-36.87 91.75) rotate(-33.03)"/>
  <g>
    <path class="cls-4" d="M98.35,182.28l-45.55-70.07c-3.64-5.6-2.56-12.77,2.4-15.99L156.5,30.37c4.96-3.22,11.95-1.29,15.59,4.3l45.55,70.07c3.64,5.6,2.56,12.77-2.4,15.99l-101.3,65.85c-4.96,3.22-11.95,1.29-15.59-4.3ZM170.63,35.62c-3.04-4.68-8.9-6.3-13.05-3.6L56.27,97.87c-4.15,2.7-5.05,8.7-2.01,13.39l45.55,70.07c3.04,4.68,8.9,6.3,13.05,3.6l101.3-65.85c4.15-2.7,5.05-8.7,2.01-13.39l-45.55-70.07Z"/>
    <path class="cls-3" d="M98.37,182.19l-45.55-70.07c-3.64-5.6-2.56-12.77,2.4-15.99l65.82-42.78c4.96-3.22,11.95-1.29,15.59,4.3l45.55,70.07c3.64,5.6,2.56,12.77-2.4,15.99l-65.82,42.78c-4.96,3.22-11.95,1.29-15.59-4.3ZM135.15,58.59c-3.04-4.68-8.9-6.3-13.05-3.6l-65.82,42.78c-4.15,2.7-5.05,8.7-2.01,13.39l45.55,70.07c3.04,4.68,8.9,6.3,13.05,3.6l65.82-42.78c4.15-2.7,5.05-8.7,2.01-13.39l-45.55-70.07Z"/>
  </g>
  <rect class="cls-5" x="135.68" y="67.02" width="82.59" height="28.73" rx="8.09" ry="8.09" transform="translate(148.76 -111.35) rotate(56.97)"/>
  <line class="cls-5" x1="141.03" y1="96.91" x2="94.26" y2="127.08"/>
  <line class="cls-5" x1="148.45" y1="109.36" x2="101.68" y2="139.53"/>
  <polygon class="cls-3" points="164.4 41.57 189.88 121.19 183.7 118.08 145.14 57.65 145.14 53.69 164.4 41.57"/>
  <polygon class="cls-2" points="212.57 76.33 230.68 106.95 246.88 85.5 212.57 76.33"/>
  <line class="cls-5" x1="212.57" y1="76.33" x2="238.22" y2="96.97"/>
  <path class="cls-5" d="M248.38,106.95s19.29,124.88-224.82,24.57"/>
  <g>
    <rect class="cls-7" x="191.7" y="26.22" width="665.8" height="78.58"/>
    <path class="cls-6" d="M224.22,32.14c0,.51-.19.77-.57.77-.59,0-4.3-.12-11.13-.35-.19,5.99-.28,10.79-.28,14.4,0,2.26.09,5.64.27,10.16.18,4.51.27,7.9.27,10.16,0,.41-.3.62-.91.62-.38,0-.95-.03-1.73-.09-.78-.06-1.36-.09-1.76-.09-.38,0-.95.03-1.73.09-.78.06-1.35.09-1.73.09-.52,0-.79-.25-.79-.74,0-2.24.1-5.6.3-10.08.2-4.48.3-7.86.3-10.11,0-3.49-.12-8.29-.35-14.4-5.41.31-9.37.47-11.89.47-.25,0-.38-.1-.38-.29,0-.35.09-.86.28-1.53.23-.86.37-1.37.41-1.53.04-.69.19-1.64.44-2.86.1-.25.28-.38.53-.38l.38.03c7.42.41,12.32.62,14.69.62,2.1,0,5.52-.15,10.28-.44,3.25-.2,4.6-.29,4.06-.29.54,0,.85.18.91.53-.04-.22-.06.74-.06,2.86,0,.26.03.65.09,1.19.06.54.09.95.09,1.22Z"/>
    <path class="cls-6" d="M245.94,40.24c0,2.16-.16,4.12-.47,5.89-.06.45-.27.68-.63.68-.44,0-1.11-.04-2-.13s-1.57-.13-2.03-.13c-2.64,0-4.33.7-5.06,2.09-.44.84-.66,2.6-.66,5.27v3.24c0,1.1.05,2.77.14,5s.14,3.91.14,5c0,.53-.24.79-.72.79-.65,0-1.64-.01-2.96-.03s-2.31-.03-2.96-.03c-.48,0-.72-.25-.72-.74,0-1.59.03-3.98.08-7.18.05-3.2.08-5.6.08-7.21,0-4.85-.48-8.74-1.45-11.69-.04-.16-.06-.27-.06-.35,0-.24.14-.4.41-.5.78-.08,1.87-.2,3.27-.35,2.26-.39,3.31-.59,3.14-.59.33,0,.56.58.66,1.74.1,1.16.29,1.74.57,1.74.04,0,.09-.02.16-.06.86-.51,1.72-1.02,2.58-1.53.94-.53,1.91-.92,2.89-1.18.82-.24,1.87-.35,3.15-.35,1.63,0,2.45.21,2.45.62Z"/>
    <path class="cls-6" d="M279.97,41.24c0,.08-.03.26-.09.53-.82,4.49-1.23,8.37-1.23,11.63,0,.2.26,4.6.79,13.22l.03.41c.02.57-.26.85-.83.85s-1.45.06-2.61.19c-1.16.13-2.03.19-2.59.19-.4,0-.7-.69-.91-2.06-.21-1.37-.41-2.06-.6-2.06-.13,0-.69.38-1.7,1.15-1.24.94-2.39,1.66-3.46,2.15-1.66.78-3.31,1.18-4.97,1.18-4.07,0-7.49-1.52-10.28-4.56-2.64-2.9-3.96-6.29-3.96-10.16,0-4.36,1.33-7.96,3.99-10.8,2.79-2.96,6.46-4.45,11.01-4.45,3.21,0,6.01,1.04,8.4,3.12.36.39.91.96,1.67,1.71.06.06.13.09.19.09.13,0,.3-.62.53-1.85.23-1.24.52-1.85.88-1.85.57,0,1.62.15,3.18.44,1.72.35,2.58.67,2.58.94ZM271.95,53.55c0-2.41-.77-4.48-2.3-6.21-1.61-1.86-3.68-2.8-6.19-2.8s-4.61.92-6.29,2.77c-1.61,1.77-2.42,3.85-2.42,6.24s.81,4.44,2.42,6.18c1.68,1.83,3.77,2.74,6.29,2.74s4.51-.93,6.16-2.8c1.55-1.75,2.33-3.79,2.33-6.12Z"/>
    <path class="cls-6" d="M299.81,58.82c0,2.92-1.25,5.27-3.74,7.04-2.26,1.61-5.02,2.41-8.27,2.41-1.26,0-1.97-.03-2.14-.09-.36-.16-.53-.64-.53-1.44,0-.43-.06-1.08-.17-1.94-.12-.86-.17-1.5-.17-1.91,0-.25.19-.42.57-.5.27-.06.66-.06,1.16,0,.65.06.96.09.94.09,3.96,0,5.94-1.14,5.94-3.42,0-1.08-.87-2.07-2.61-2.97-2.83-1.45-4.46-2.35-4.87-2.68-1.74-1.39-2.61-3.22-2.61-5.48,0-2.94,1.18-5.24,3.55-6.89,2.14-1.47,4.84-2.21,8.11-2.21.29,0,.51.13.64.38.14.26.4,1.05.79,2.38.39,1.33.58,2.14.58,2.41,0,.22-.2.35-.6.41-1.34.18-2.69.34-4.06.5-1.62.41-2.42,1.24-2.42,2.47,0,.88.85,1.78,2.55,2.68,2.52,1.31,4.11,2.27,4.78,2.86,1.72,1.53,2.58,3.49,2.58,5.89Z"/>
    <path class="cls-6" d="M331.79,66.85c0,.73-.22,1.09-.66,1.09-.65,0-1.64-.01-2.96-.03-1.32-.02-2.31-.03-2.96-.03-.52,0-.79-.32-.79-.97,0-.94.04-2.36.11-4.27.07-1.9.11-3.34.11-4.3,0-.9-.04-2.27-.11-4.11-.07-1.83-.11-3.21-.11-4.14,0-3.53-1.78-5.3-5.35-5.3-1.15,0-2.66.54-4.53,1.62-1.99,1.16-2.99,2.22-2.99,3.18v17.49c0,.57-.22.85-.66.85-.65,0-1.62-.01-2.92-.03s-2.28-.03-2.92-.03c-.48,0-.72-.27-.72-.79v-14.22c0-2.32-.14-7.24-.41-14.78-.04-2.34-.22-5.79-.54-10.36-.04-.24-.06-.39-.06-.47,0-.33.13-.54.38-.62.36-.12,1.54-.18,3.55-.18.44,0,1.1-.07,1.98-.22.88-.15,1.52-.22,1.92-.22.27,0,.41.19.41.56,0,1.84-.08,4.62-.24,8.32-.16,3.7-.24,6.47-.24,8.32,0,.45.08.69.25.71,1.07-.84,2.45-1.86,4.15-3.06,2.05-1.2,4.22-1.8,6.51-1.8,3.94,0,6.66,1.1,8.15,3.3,1.07,1.61,1.6,4.16,1.6,7.65,0,.61-.02,1.55-.05,2.81-.03,1.27-.05,2.2-.05,2.81,0,1.26.02,3.13.06,5.62.04,2.49.06,4.36.06,5.59Z"/>
    <path class="cls-6" d="M383.24,32.14c0,.51-.19.77-.57.77-.59,0-4.3-.12-11.13-.35-.19,5.99-.28,10.79-.28,14.4,0,2.26.09,5.64.27,10.16.18,4.51.27,7.9.27,10.16,0,.41-.3.62-.91.62-.38,0-.95-.03-1.73-.09-.78-.06-1.36-.09-1.76-.09s-.96.03-1.73.09c-.78.06-1.35.09-1.73.09-.52,0-.79-.25-.79-.74,0-2.24.1-5.6.3-10.08s.3-7.86.3-10.11c0-3.49-.12-8.29-.35-14.4-5.41.31-9.37.47-11.89.47-.25,0-.38-.1-.38-.29,0-.35.09-.86.28-1.53.23-.86.37-1.37.41-1.53.04-.69.19-1.64.44-2.86.1-.25.28-.38.53-.38l.38.03c7.42.41,12.32.62,14.69.62,2.1,0,5.52-.15,10.28-.44,3.25-.2,4.6-.29,4.06-.29.54,0,.85.18.91.53-.04-.22-.06.74-.06,2.86,0,.26.03.65.09,1.19.06.54.09.95.09,1.22Z"/>
    <path class="cls-6" d="M415.47,53.55c0,4.1-1.44,7.61-4.31,10.51-2.94,3-6.57,4.5-10.91,4.5s-8.01-1.49-10.94-4.48c-2.87-2.88-4.31-6.38-4.31-10.48s1.44-7.6,4.31-10.48c2.96-2.94,6.6-4.42,10.94-4.42s7.95,1.47,10.88,4.42c2.89,2.87,4.34,6.34,4.34,10.42ZM408.84,53.61c0-2.39-.79-4.44-2.36-6.12-1.63-1.79-3.71-2.68-6.23-2.68s-4.6.88-6.26,2.65c-1.57,1.71-2.36,3.76-2.36,6.15s.8,4.4,2.39,6.12c1.68,1.83,3.75,2.74,6.23,2.74s4.57-.91,6.23-2.74c1.57-1.73,2.36-3.77,2.36-6.12Z"/>
    <path class="cls-6" d="M427.86,27.05l-.03.38c-.46,7.3-.69,13.57-.69,18.81,0,2.34.04,5.83.13,10.5.08,4.66.12,8.15.12,10.47,0,.45-.17.68-.5.68h-6.01c-.38,0-.57-.23-.57-.68,0-2.32.02-5.8.06-10.47.04-4.66.06-8.16.06-10.5,0-2.12-.11-5.3-.33-9.55-.22-4.25-.33-7.42-.33-9.52,0-.39.22-.59.66-.59.38,0,.94.03,1.7.09.75.06,1.32.09,1.7.09.4,0,.98-.03,1.76-.09.78-.06,1.35-.09,1.73-.09s.55.16.53.47Z"/>
    <path class="cls-6" d="M464.31,26.82c0,2.53-.12,6.33-.36,11.38-.24,5.05-.36,8.84-.36,11.35,0,7.75.18,13.62.53,17.6l.03.38c.02.2-.26.32-.85.38-.4.04-.96.04-1.7,0-.88-.06-1.29-.09-1.23-.09-.31,0-.78.03-1.38.09-.61.06-1.07.09-1.38.09-.29,0-.47-.68-.52-2.05-.05-1.36-.13-2.06-.24-2.08-.13.06-.28.19-.47.38-2.87,2.9-6.17,4.36-9.91,4.36-4.24,0-7.72-1.51-10.44-4.53-2.58-2.85-3.87-6.28-3.87-10.3s1.3-7.69,3.9-10.54c2.73-2.98,6.28-4.47,10.66-4.47,2.64,0,4.95.73,6.92,2.18.9.73,1.79,1.46,2.67,2.21.17-.06.25-.2.25-.41v-9.54c0-.65-.03-1.63-.09-2.94-.06-1.31-.09-2.31-.09-2.97,0-.47.17-.71.5-.71.78,0,1.93-.06,3.46-.19,1.53-.13,2.67-.19,3.43-.19.36,0,.54.21.54.62ZM456.45,53.61c0-2.35-.78-4.43-2.33-6.21-1.66-1.9-3.71-2.86-6.16-2.86-2.58,0-4.71.94-6.38,2.83-1.59,1.77-2.39,3.89-2.39,6.36s.83,4.41,2.48,6.15c1.7,1.85,3.79,2.77,6.29,2.77s4.59-.93,6.23-2.8c1.51-1.75,2.26-3.83,2.26-6.24Z"/>
    <path class="cls-6" d="M515.31,32.14c0,.51-.19.77-.57.77-.59,0-4.3-.12-11.13-.35-.19,5.99-.28,10.79-.28,14.4,0,2.26.09,5.64.27,10.16.18,4.51.27,7.9.27,10.16,0,.41-.3.62-.91.62-.38,0-.95-.03-1.73-.09-.78-.06-1.36-.09-1.76-.09s-.96.03-1.73.09c-.78.06-1.35.09-1.73.09-.52,0-.79-.25-.79-.74,0-2.24.1-5.6.3-10.08s.3-7.86.3-10.11c0-3.49-.12-8.29-.35-14.4-5.41.31-9.37.47-11.89.47-.25,0-.38-.1-.38-.29,0-.35.09-.86.28-1.53.23-.86.37-1.37.41-1.53.04-.69.19-1.64.44-2.86.1-.25.28-.38.53-.38l.38.03c7.42.41,12.32.62,14.69.62,2.1,0,5.52-.15,10.28-.44,3.25-.2,4.6-.29,4.06-.29.54,0,.85.18.91.53-.04-.22-.06.74-.06,2.86,0,.26.03.65.09,1.19.06.54.09.95.09,1.22Z"/>
    <path class="cls-6" d="M527.23,32.67c0,2.41-1.44,3.62-4.31,3.62s-4.37-1.21-4.37-3.62c0-1.08.45-1.97,1.35-2.68.84-.67,1.84-1,3.02-1s2.19.34,3.04,1.03c.85.69,1.27,1.57,1.27,2.65ZM527.01,40.65c0,1.51-.1,3.79-.3,6.84s-.3,5.34-.3,6.87c0,1.43.03,3.58.09,6.43.06,2.86.09,4.99.09,6.4,0,.41-.19.62-.57.62h-6.13c-.44,0-.66-.4-.66-1.21,0-1.35.04-3.39.11-6.11s.11-4.76.11-6.14c0-1.53-.12-3.83-.36-6.89-.24-3.06-.36-5.36-.36-6.89,0-.33.22-.5.66-.5.38,0,.96.05,1.75.15.79.1,1.38.15,1.78.15s.99-.05,1.78-.15c.79-.1,1.38-.15,1.78-.15.36,0,.53.19.53.56Z"/>
    <path class="cls-6" d="M581.04,66.79c0,.77-.24,1.15-.72,1.15-.31,0-.79-.03-1.43-.09-.64-.06-1.13-.09-1.46-.09-.36,0-.89.02-1.6.06-.71.04-1.25.06-1.6.06-.44,0-.66-.46-.66-1.38s.04-2.25.11-4.05c.07-1.8.11-3.15.11-4.05,0-4.97-.02-7.73-.06-8.3-.17-2.02-.61-3.42-1.32-4.18-.82-.82-2.28-1.24-4.37-1.24-1.32,0-2.81.59-4.47,1.77-1.72,1.24-2.61,2.45-2.67,3.65-.08,1.53-.13,4.33-.13,8.39,0,.96.04,2.4.13,4.33s.13,3.37.13,4.33c0,.53-.19.79-.57.79s-.93-.03-1.65-.09c-.72-.06-1.27-.09-1.65-.09-.33,0-.83.02-1.48.06-.65.04-1.14.06-1.48.06-.42,0-.63-.28-.63-.85,0-.94.03-2.36.09-4.25.06-1.89.09-3.31.09-4.25v-7.09c0-2.22-.28-3.8-.85-4.74-.8-1.33-2.32-2-4.56-2-1.32,0-2.89.52-4.72,1.56-2.01,1.14-3.02,2.29-3.02,3.44v8.6c0,.98,0,2.44.03,4.39.02,1.94.03,3.4.03,4.36,0,.57-.24.85-.72.85h-5.85c-.42,0-.63-.27-.63-.79,0-1.59,0-3.98.03-7.17.02-3.19.03-5.58.03-7.17,0-3.59-.41-7.17-1.23-10.75-.06-.25-.09-.46-.09-.62,0-.25.09-.4.28-.44.78-.08,1.91-.23,3.4-.44.69-.2,1.73-.41,3.11-.65l.25-.03c.25,0,.49.69.71,2.08.22,1.38.41,2.08.58,2.08l1.57-1.3c1.24-1,2.47-1.8,3.71-2.38,1.78-.86,3.56-1.3,5.35-1.3,4.82,0,7.89,1.85,9.21,5.53,1.3-1.57,2.91-2.87,4.84-3.89,2.05-1.1,4.09-1.65,6.1-1.65,3.88,0,6.56,1.06,8.05,3.18,1.07,1.57,1.6,4.05,1.6,7.45,0,.65-.02,1.65-.06,3-.04,1.35-.06,2.35-.06,3,0,1.24.03,3.1.09,5.58.06,2.48.09,4.34.09,5.58Z"/>
    <path class="cls-6" d="M613.9,52.07c0,1.45-.67,2.42-2.01,2.91-.9.31-7.39.89-19.47,1.74.27,1.73,1.29,3.2,3.05,4.42,1.68,1.16,3.48,1.74,5.41,1.74,3.31,0,6.35-1,9.12-3,.33-.25.67-.51,1.01-.77.17,0,.28.02.33.06.05.04.45.72,1.18,2.05.73,1.32,1.1,2.04,1.1,2.13,0,.12-.17.34-.5.68-3.08,3.06-7.03,4.59-11.86,4.59s-8.74-1.36-11.63-4.08c-2.89-2.72-4.34-6.34-4.34-10.88,0-4.04,1.38-7.57,4.15-10.57,2.91-3.12,6.49-4.68,10.72-4.68,3.94,0,7.23,1.35,9.87,4.06,2.58,2.63,3.87,5.83,3.87,9.6ZM606.41,50.28c0-1.63-.69-3.07-2.06-4.33-1.37-1.26-2.92-1.88-4.64-1.88-1.93,0-3.64.73-5.14,2.18-1.5,1.45-2.25,3.08-2.25,4.89,0,.41.38.62,1.13.62,3.1,0,6.81-.29,11.13-.88,1.22-.16,1.82-.35,1.82-.59Z"/>
    <path class="cls-6" d="M626.25,27.05l-.03.38c-.46,7.3-.69,13.57-.69,18.81,0,2.34.04,5.83.13,10.5.08,4.66.12,8.15.12,10.47,0,.45-.17.68-.5.68h-6.01c-.38,0-.57-.23-.57-.68,0-2.32.02-5.8.06-10.47.04-4.66.06-8.16.06-10.5,0-2.12-.11-5.3-.33-9.55-.22-4.25-.33-7.42-.33-9.52,0-.39.22-.59.66-.59.38,0,.94.03,1.7.09.75.06,1.32.09,1.7.09.4,0,.98-.03,1.76-.09.78-.06,1.35-.09,1.73-.09s.55.16.53.47Z"/>
    <path class="cls-6" d="M658.96,47.39c0,3.32-.11,5.32-.31,6.01-.27.88-2.87,4.74-7.78,11.56s-7.84,10.63-8.76,11.44c-.84.71-3.54,1.06-8.11,1.06-.54,0-.9-.05-1.05-.16s-.51-.82-1.07-2.13c-.56-1.31-.83-2.1-.83-2.35,0-.43.56-.65,1.67-.65,2.35,0,4.08-.31,5.19-.94.38-.22.95-.89,1.71-2.03.76-1.14,1.15-1.9,1.15-2.3,0-.53-1.52-2.6-4.56-6.21-3.21-3.83-5-6.25-5.38-7.27-.29-.8-.44-2.73-.44-5.77,0-.75.01-1.87.03-3.37s.03-2.63.03-3.4c0-.43.25-.65.75-.65.67,0,1.66.04,2.97.12,1.31.08,2.3.12,2.97.12.33,0,.5.21.5.62,0,.55-.03,1.37-.09,2.47-.06,1.1-.09,1.92-.09,2.47,0,2.39.08,4.18.25,5.36.13.75,1.27,2.6,3.43,5.56,2.16,2.96,3.49,4.45,3.99,4.45.36,0,1.49-1.46,3.4-4.37,1.91-2.91,2.92-4.71,3.05-5.4.17-.98.25-2.77.25-5.36,0-.57-.06-1.41-.19-2.52-.13-1.11-.19-1.94-.19-2.49,0-.49.17-.74.5-.74.67,0,1.68-.04,3.03-.13,1.35-.09,2.36-.13,3.04-.13.63,0,.94,2.38.94,7.15Z"/>
  </g>
  <rect class="cls-7" x="595.56" y="145.56" width="4.67" height=".67"/>
  <path class="cls-5" d="M386.22,106.95c-37.32-50.55-130.92-16.75-130.92-16.75"/>
</svg>