<?xml version="1.0" encoding="UTF-8"?>
<svg id="Layer_1" data-name="Layer 1" xmlns="http://www.w3.org/2000/svg" viewBox="0 0 640 210.67">
  <defs>
    <style>
      .cls-1 {
        fill: #b1bfe0;
      }

      .cls-1, .cls-2, .cls-3, .cls-4, .cls-5, .cls-6 {
        stroke: #000;
        stroke-miterlimit: 10;
      }

      .cls-2 {
        fill: #f7f7e4;
      }

      .cls-2, .cls-4, .cls-6 {
        stroke-width: 2px;
      }

      .cls-3 {
        fill: #615166;
        stroke-width: 3px;
      }

      .cls-7, .cls-6 {
        fill: none;
      }

      .cls-8 {
        fill: #faf53a;
      }
    </style>
  </defs>
  <rect class="cls-1" x="74.27" y="39.36" width="164.36" height="123.45" rx="11.03" ry="11.03" transform="translate(-29.82 101.6) rotate(-33.03)"/>
  <g>
    <path class="cls-5" d="M111.71,188.57l-53.68-82.58c-4.29-6.59-3.02-15.05,2.82-18.85L180.24,9.53c5.84-3.8,14.09-1.52,18.37,5.07l53.68,82.58c4.29,6.59,3.02,15.05-2.82,18.85l-119.39,77.61c-5.84,3.8-14.09,1.52-18.37-5.07ZM196.88,15.73c-3.59-5.52-10.49-7.42-15.38-4.24L62.12,89.09c-4.89,3.18-5.95,10.26-2.36,15.78l53.68,82.58c3.59,5.52,10.49,7.42,15.38,4.24l119.39-77.61c4.89-3.18,5.95-10.26,2.36-15.78L196.88,15.73Z"/>
    <path class="cls-4" d="M111.72,188.46l-53.68-82.58c-4.29-6.59-3.02-15.05,2.82-18.85l77.57-50.42c5.84-3.8,14.09-1.52,18.37,5.07l53.68,82.58c4.29,6.59,3.02,15.05-2.82,18.85l-77.57,50.42c-5.84,3.8-14.09,1.52-18.37-5.07ZM155.08,42.8c-3.59-5.52-10.49-7.42-15.38-4.24l-77.57,50.42c-4.89,3.18-5.95,10.26-2.36,15.78l53.68,82.58c3.59,5.52,10.49,7.42,15.38,4.24l77.57-50.42c4.89-3.18,5.95-10.26,2.36-15.78l-53.68-82.58Z"/>
  </g>
  <rect class="cls-6" x="155.7" y="52.73" width="97.34" height="33.86" rx="8.09" ry="8.09" transform="translate(151.39 -139.66) rotate(56.97)"/>
  <line class="cls-6" x1="162" y1="87.96" x2="106.89" y2="123.51"/>
  <line class="cls-6" x1="170.74" y1="102.62" x2="115.63" y2="138.18"/>
  <polygon class="cls-4" points="189.54 22.73 219.58 116.57 212.29 112.9 166.85 41.68 166.85 37.01 189.54 22.73"/>
  <polygon class="cls-2" points="246.31 63.7 267.66 99.78 286.75 74.51 246.31 63.7"/>
  <line class="cls-6" x1="246.31" y1="63.7" x2="276.54" y2="88.02"/>
  <path class="cls-6" d="M288.52,99.78s22.73,147.17-264.96,28.95"/>
  <g>
    <rect class="cls-3" x="180.29" y="109.51" width="447.27" height="50.67"/>
    <g>
      <rect class="cls-7" x="191.13" y="118.02" width="541.1" height="61.16"/>
      <path class="cls-8" d="M218.09,122.93c0,.42-.16.63-.47.63-.49,0-3.56-.1-9.23-.29-.16,4.96-.23,8.94-.23,11.94,0,1.87.07,4.68.22,8.42.15,3.74.22,6.55.22,8.42,0,.34-.25.51-.76.51-.31,0-.79-.02-1.43-.07-.64-.05-1.13-.07-1.46-.07-.31,0-.79.02-1.43.07-.64.05-1.12.07-1.43.07-.43,0-.65-.2-.65-.61,0-1.86.08-4.64.25-8.36.17-3.72.25-6.51.25-8.39,0-2.9-.1-6.88-.29-11.94-4.49.26-7.77.39-9.86.39-.21,0-.31-.08-.31-.24,0-.29.08-.72.23-1.27.19-.72.3-1.14.34-1.27.03-.57.16-1.36.37-2.37.09-.21.23-.32.44-.32l.31.02c6.15.34,10.21.51,12.18.51,1.74,0,4.58-.12,8.53-.37,2.69-.16,3.82-.24,3.36-.24.45,0,.7.15.76.44-.04-.18-.05.61-.05,2.37,0,.21.03.54.08.99.05.45.08.79.08,1.01Z"/>
      <path class="cls-8" d="M236.11,129.65c0,1.79-.13,3.42-.39,4.88-.05.37-.23.56-.52.56-.37,0-.92-.04-1.66-.11-.74-.07-1.3-.11-1.68-.11-2.19,0-3.59.58-4.2,1.73-.37.7-.55,2.16-.55,4.37v2.69c0,.91.04,2.29.12,4.15.08,1.86.12,3.24.12,4.15,0,.44-.2.66-.6.66-.54,0-1.36,0-2.45-.02-1.1-.02-1.91-.02-2.45-.02-.4,0-.6-.2-.6-.61,0-1.32.02-3.3.07-5.96.04-2.65.06-4.65.06-5.98,0-4.02-.4-7.25-1.2-9.69-.04-.13-.05-.23-.05-.29,0-.2.11-.33.34-.42.64-.06,1.55-.16,2.71-.29,1.88-.33,2.75-.49,2.61-.49.28,0,.46.48.55,1.44.09.96.24,1.44.47,1.44.03,0,.08-.02.13-.05.71-.42,1.43-.85,2.14-1.27.78-.44,1.58-.76,2.4-.98.68-.2,1.55-.29,2.61-.29,1.36,0,2.03.17,2.03.51Z"/>
      <path class="cls-8" d="M264.33,130.48c0,.07-.03.21-.08.44-.68,3.73-1.02,6.94-1.02,9.64,0,.16.22,3.82.65,10.96l.03.34c.02.47-.21.71-.69.71s-1.2.05-2.16.16c-.96.11-1.68.16-2.15.16-.33,0-.58-.57-.76-1.71-.17-1.14-.34-1.71-.5-1.71-.1,0-.57.32-1.41.95-1.03.78-1.98,1.38-2.87,1.78-1.37.65-2.75.98-4.12.98-3.37,0-6.22-1.26-8.53-3.78-2.19-2.41-3.29-5.22-3.29-8.42,0-3.61,1.1-6.6,3.31-8.96,2.31-2.46,5.35-3.69,9.13-3.69,2.66,0,4.98.86,6.96,2.59.3.33.76.8,1.38,1.42.05.05.1.07.16.07.1,0,.25-.51.44-1.54.19-1.03.43-1.54.73-1.54.47,0,1.35.12,2.63.37,1.43.29,2.14.55,2.14.78ZM257.68,140.68c0-2-.63-3.72-1.9-5.15-1.34-1.55-3.05-2.32-5.14-2.32s-3.83.77-5.22,2.29c-1.34,1.46-2.01,3.19-2.01,5.18s.67,3.68,2.01,5.13c1.39,1.51,3.13,2.27,5.22,2.27s3.74-.77,5.11-2.32c1.29-1.45,1.93-3.14,1.93-5.08Z"/>
      <path class="cls-8" d="M280.78,145.05c0,2.42-1.03,4.37-3.1,5.83-1.88,1.33-4.16,2-6.86,2-1.04,0-1.63-.02-1.77-.07-.3-.13-.44-.53-.44-1.2,0-.36-.05-.89-.14-1.61-.1-.72-.14-1.25-.14-1.59,0-.21.16-.35.47-.42.23-.05.55-.05.96,0,.54.05.8.07.78.07,3.29,0,4.93-.94,4.93-2.83,0-.9-.72-1.72-2.16-2.47-2.35-1.2-3.69-1.94-4.04-2.22-1.44-1.16-2.16-2.67-2.16-4.54,0-2.44.98-4.35,2.95-5.71,1.77-1.22,4.02-1.83,6.73-1.83.24,0,.42.11.53.32.11.21.33.87.65,1.98.32,1.11.48,1.77.48,2,0,.18-.17.29-.5.34-1.11.15-2.23.29-3.36.42-1.34.34-2.01,1.03-2.01,2.05,0,.73.7,1.47,2.11,2.22,2.09,1.09,3.41,1.88,3.96,2.37,1.43,1.27,2.14,2.9,2.14,4.88Z"/>
      <path class="cls-8" d="M307.3,151.72c0,.6-.18.9-.55.9-.54,0-1.36,0-2.45-.02-1.09-.02-1.91-.02-2.45-.02-.43,0-.65-.27-.65-.81,0-.78.03-1.96.09-3.54s.09-2.77.09-3.56c0-.75-.03-1.88-.09-3.41-.06-1.52-.09-2.67-.09-3.43,0-2.93-1.48-4.39-4.43-4.39-.96,0-2.21.45-3.76,1.34-1.65.96-2.48,1.84-2.48,2.64v14.5c0,.47-.18.71-.55.71-.54,0-1.35,0-2.43-.02-1.08-.02-1.89-.02-2.43-.02-.4,0-.6-.22-.6-.66v-11.79c0-1.92-.11-6.01-.34-12.26-.03-1.94-.18-4.8-.44-8.59-.03-.2-.05-.33-.05-.39,0-.28.1-.45.31-.51.3-.1,1.28-.15,2.95-.15.36,0,.91-.06,1.64-.18.73-.12,1.26-.18,1.59-.18.23,0,.34.15.34.46,0,1.53-.06,3.83-.2,6.9-.13,3.07-.2,5.37-.2,6.9,0,.37.07.57.21.59.89-.7,2.03-1.55,3.44-2.54,1.7-.99,3.5-1.49,5.4-1.49,3.27,0,5.52.91,6.75,2.73.89,1.33,1.33,3.45,1.33,6.35,0,.5-.01,1.28-.04,2.33-.03,1.05-.04,1.83-.04,2.33,0,1.04.02,2.6.05,4.66.04,2.07.05,3.61.05,4.64Z"/>
      <path class="cls-8" d="M349.29,140.68c0,3.4-1.19,6.31-3.57,8.72-2.43,2.49-5.45,3.74-9.05,3.74s-6.64-1.24-9.08-3.71c-2.38-2.39-3.57-5.29-3.57-8.69s1.19-6.3,3.57-8.69c2.45-2.44,5.48-3.66,9.08-3.66s6.59,1.22,9.02,3.66c2.4,2.38,3.6,5.26,3.6,8.64ZM343.79,140.73c0-1.99-.65-3.68-1.96-5.08-1.36-1.48-3.08-2.22-5.16-2.22s-3.82.73-5.19,2.2c-1.3,1.42-1.96,3.12-1.96,5.1s.66,3.65,1.98,5.08c1.39,1.51,3.11,2.27,5.16,2.27s3.79-.76,5.16-2.27c1.3-1.43,1.96-3.12,1.96-5.08Z"/>
      <path class="cls-8" d="M366.42,121.27c0,.2-.16.31-.47.34-.85.08-1.69.15-2.53.22-.99.13-1.75.46-2.27.98-.85.86-1.28,3.05-1.28,6.57.57,0,1.48.02,2.71.05,1.23.03,2.16.05,2.79.05.42,0,.63.15.63.44,0,.46.02,1.14.05,2.04s.05,1.57.05,2.01c0,.31-.17.46-.52.46-.61,0-1.53-.03-2.76-.09-1.23-.06-2.15-.09-2.74-.09v7.3c0,1.14.04,2.87.13,5.18.09,2.31.13,4.04.13,5.18,0,.44-.17.66-.52.66h-4.77c-.45,0-.68-.25-.68-.76v-16.8c0-.44-.53-.65-1.59-.63-1.15.02-1.76-.02-1.83-.12-.05-.05-.08-.35-.08-.9,0-.36-.02-.89-.05-1.6s-.05-1.24-.05-1.6,1.1-.57,3.31-.68c-.05-1.04-.08-1.89-.08-2.54,0-2.88.55-4.99,1.64-6.32.97-1.2,2.4-2.15,4.28-2.83,1.69-.62,3.43-.93,5.24-.93.17,0,.3.09.37.27.02.03.17.72.46,2.06.29,1.34.43,2.04.43,2.09Z"/>
      <path class="cls-8" d="M396.54,148.08c0,.36-.04.85-.1,1.46-.09.77-.14,1.26-.16,1.49-.02.29-.04.47-.08.54-.07.11-.24.23-.5.34-1.43.63-3.67.95-6.73.95-4.07,0-6.1-1.72-6.1-5.18,0-1.38.03-3.46.1-6.24.07-2.77.1-4.85.1-6.24,0-.67-.36-1.03-1.07-1.07-.64,0-1.28,0-1.9-.02-.36-.08-.55-.75-.55-2,0-.47.03-.97.1-1.49.05-.39.33-.63.83-.71.43,0,.86,0,1.28-.02.8-.03,1.2-.37,1.2-1s-.02-1.64-.07-2.98c-.04-1.33-.07-2.34-.07-3,0-1.19.24-1.78.73-1.78.16,0,1.79.25,4.9.76.4.05.6.23.6.54,0,.72-.06,1.79-.17,3.22-.11,1.43-.17,2.51-.17,3.22,0,.47.24.71.7.71h6.26c.3,0,.44.1.44.29s-.03.51-.09.94c-.06.43-.09.75-.09.96,0,.24,0,.62.03,1.12.02.5.03.88.03,1.12,0,.31-.24.46-.73.46-.7,0-1.75-.04-3.16-.13-1.41-.09-2.46-.13-3.16-.13-.14,0-.24.46-.31,1.39-.09,1.16-.13,2.78-.13,4.86v3.64c0,1.4.14,2.38.42,2.93.42.85,1.28,1.27,2.58,1.27.54,0,1.33-.11,2.37-.33,1.04-.22,1.82-.33,2.32-.33.21,0,.31.15.31.44Z"/>
      <path class="cls-8" d="M423.04,151.72c0,.6-.18.9-.55.9-.54,0-1.36,0-2.45-.02-1.09-.02-1.91-.02-2.45-.02-.43,0-.65-.27-.65-.81,0-.78.03-1.96.09-3.54.06-1.58.09-2.77.09-3.56,0-.75-.03-1.88-.09-3.41-.06-1.52-.09-2.67-.09-3.43,0-2.93-1.48-4.39-4.43-4.39-.96,0-2.21.45-3.75,1.34-1.65.96-2.48,1.84-2.48,2.64v14.5c0,.47-.18.71-.55.71-.54,0-1.35,0-2.43-.02-1.08-.02-1.89-.02-2.42-.02-.4,0-.6-.22-.6-.66v-11.79c0-1.92-.11-6.01-.34-12.26-.04-1.94-.18-4.8-.44-8.59-.04-.2-.05-.33-.05-.39,0-.28.1-.45.31-.51.29-.1,1.28-.15,2.95-.15.37,0,.91-.06,1.64-.18.73-.12,1.26-.18,1.59-.18.23,0,.34.15.34.46,0,1.53-.07,3.83-.2,6.9-.13,3.07-.2,5.37-.2,6.9,0,.37.07.57.21.59.89-.7,2.03-1.55,3.44-2.54,1.7-.99,3.5-1.49,5.4-1.49,3.27,0,5.52.91,6.75,2.73.89,1.33,1.33,3.45,1.33,6.35,0,.5-.01,1.28-.04,2.33-.03,1.05-.04,1.83-.04,2.33,0,1.04.02,2.6.05,4.66.03,2.07.05,3.61.05,4.64Z"/>
      <path class="cls-8" d="M450.13,139.46c0,1.2-.56,2.01-1.67,2.42-.75.26-6.13.74-16.14,1.44.23,1.43,1.07,2.65,2.53,3.66,1.39.96,2.88,1.44,4.49,1.44,2.75,0,5.27-.83,7.56-2.49.28-.21.56-.42.83-.63.14,0,.23.02.27.05.04.03.37.6.98,1.7.61,1.1.91,1.69.91,1.77,0,.1-.14.29-.42.56-2.56,2.54-5.83,3.81-9.83,3.81s-7.25-1.13-9.65-3.38c-2.4-2.25-3.6-5.26-3.6-9.02,0-3.35,1.15-6.27,3.44-8.76,2.42-2.59,5.38-3.88,8.89-3.88,3.27,0,6,1.12,8.19,3.37,2.14,2.18,3.21,4.83,3.21,7.96ZM443.93,137.97c0-1.35-.57-2.55-1.71-3.59-1.14-1.04-2.42-1.56-3.85-1.56-1.6,0-3.02.6-4.26,1.81-1.24,1.2-1.86,2.56-1.86,4.05,0,.34.31.51.94.51,2.57,0,5.65-.24,9.23-.73,1.01-.13,1.51-.29,1.51-.49Z"/>
      <path class="cls-8" d="M510.56,130.82c0,.13-1.74,3.61-5.22,10.45-1.17,2.38-2.95,5.92-5.35,10.64-.23.44-.46.66-.7.66h-4.69c-.33,0-.6-.22-.81-.66-1.29-2.83-3.14-7.29-5.55-13.38-1.2,3-3.07,7.46-5.61,13.38-.19.44-.45.66-.78.66h-4.67c-.26,0-.5-.22-.73-.66-1.2-2.36-3-5.91-5.4-10.64-3.32-6.48-4.98-9.96-4.98-10.45,0-1.33.04-3.34.13-6.03s.13-4.7.13-6.03c0-.29.22-.44.65-.44.31,0,.79.02,1.42.07s1.11.07,1.42.07c.3,0,.74-.02,1.33-.05.59-.03,1.03-.05,1.33-.05.37,0,.55.12.55.37,0,1.32-.08,3.31-.25,5.97s-.25,4.65-.25,5.97c0,.83,1.75,4.59,5.27,11.28,1.16,2.21,1.8,3.32,1.9,3.32.04-.02.08-.07.13-.17.21-.37.65-1.42,1.33-3.12,1.25-3.17,2.54-6.78,3.86-10.82.05-.41.08-1.69.08-3.86,0-.96-.03-2.4-.09-4.31-.06-1.91-.09-3.35-.09-4.31,0-.24.18-.37.55-.37.33,0,.83.02,1.49.07.66.05,1.16.07,1.51.07.29,0,.74-.02,1.33-.07.59-.05,1.03-.07,1.33-.07.4,0,.6.13.6.39,0,1.03-.04,2.57-.1,4.63-.07,2.06-.1,3.6-.1,4.63,0,1.68,0,2.69.03,3.05.05.81,1.36,4.39,3.94,10.72.28.72.73,1.74,1.36,3.08.02.07.05.12.1.17.1,0,.72-1.08,1.85-3.25,3.42-6.56,5.14-10.26,5.14-11.11,0-1.33-.08-3.33-.23-5.98-.16-2.65-.24-4.64-.24-5.96,0-.24.07-.37.21-.37.35,0,.86.02,1.55.07.69.05,1.2.07,1.55.07.31,0,.79-.02,1.43-.07.64-.05,1.13-.07,1.46-.07.37,0,.57.1.63.29,0-.02,0,.21,0,.68,0,1.29.04,3.21.13,5.76.09,2.56.13,4.48.13,5.76Z"/>
      <path class="cls-8" d="M536.87,139.46c0,1.2-.56,2.01-1.67,2.42-.75.26-6.13.74-16.14,1.44.23,1.43,1.07,2.65,2.53,3.66,1.39.96,2.88,1.44,4.49,1.44,2.75,0,5.27-.83,7.56-2.49.28-.21.56-.42.83-.63.14,0,.23.02.27.05.04.03.37.6.98,1.7.61,1.1.91,1.69.91,1.77,0,.1-.14.29-.42.56-2.56,2.54-5.83,3.81-9.83,3.81s-7.25-1.13-9.65-3.38c-2.4-2.25-3.6-5.26-3.6-9.02,0-3.35,1.15-6.27,3.44-8.76,2.42-2.59,5.38-3.88,8.89-3.88,3.27,0,6,1.12,8.19,3.37,2.14,2.18,3.21,4.83,3.21,7.96ZM530.66,137.97c0-1.35-.57-2.55-1.71-3.59-1.14-1.04-2.42-1.56-3.85-1.56-1.6,0-3.02.6-4.26,1.81-1.24,1.2-1.86,2.56-1.86,4.05,0,.34.31.51.94.51,2.57,0,5.65-.24,9.23-.73,1.01-.13,1.51-.29,1.51-.49Z"/>
      <path class="cls-8" d="M562.61,139.46c0,1.2-.56,2.01-1.67,2.42-.75.26-6.13.74-16.14,1.44.23,1.43,1.07,2.65,2.53,3.66,1.39.96,2.88,1.44,4.49,1.44,2.75,0,5.27-.83,7.56-2.49.28-.21.56-.42.83-.63.14,0,.23.02.27.05.04.03.37.6.98,1.7.61,1.1.91,1.69.91,1.77,0,.1-.14.29-.42.56-2.56,2.54-5.83,3.81-9.83,3.81s-7.25-1.13-9.65-3.38c-2.4-2.25-3.6-5.26-3.6-9.02,0-3.35,1.15-6.27,3.44-8.76,2.42-2.59,5.38-3.88,8.89-3.88,3.27,0,6,1.12,8.19,3.37,2.14,2.18,3.21,4.83,3.21,7.96ZM556.4,137.97c0-1.35-.57-2.55-1.71-3.59-1.14-1.04-2.42-1.56-3.85-1.56-1.6,0-3.02.6-4.26,1.81-1.24,1.2-1.86,2.56-1.86,4.05,0,.34.31.51.94.51,2.57,0,5.65-.24,9.23-.73,1.01-.13,1.51-.29,1.51-.49Z"/>
      <path class="cls-8" d="M591.89,135.82c0,4.23-2.1,7.06-6.29,8.5,0,.83,1.74,3.42,5.22,7.76,0,.24-.87.41-2.61.49-1.15.05-2.01.07-2.58.07-1.23,0-2.01-.24-2.32-.73-.82-1.3-2.1-3.2-3.86-5.69-.21-.29-2.1-.42-5.66-.37l-1.02.02v6.03c0,.5-.19.76-.57.76-.56,0-1.38,0-2.46-.02-1.09-.02-1.91-.02-2.46-.02-.38,0-.57-.32-.57-.95v-15.19c0-1.99-.08-4.96-.25-8.91s-.25-6.93-.25-8.91c0-.29.17-.46.5-.49.57-.02,1.44-.05,2.61-.1.24-.02.76-.07,1.54-.17.63-.08,1.13-.12,1.51-.12.24,0,.36.2.36.59,0,.88-.04,2.19-.13,3.93-.09,1.74-.13,3.05-.13,3.93v6.3c0,.34.08.51.24.51.42-.33,1.04-.81,1.88-1.44,2.92-2.12,5.7-3.17,8.35-3.17s4.68.62,6.31,1.86c1.77,1.35,2.66,3.2,2.66,5.54ZM585.61,136.97c0-2.33-1.61-3.49-4.82-3.49-2.4,0-5.1,1.5-8.11,4.49v3.64c1.41.24,3.11.37,5.11.37s3.74-.36,5.16-1.07c1.77-.9,2.66-2.21,2.66-3.93Z"/>
    </g>
  </g>
</svg>